<mxfile host="app.diagrams.net" agent="Mozilla/5.0 (Windows NT 10.0; Win64; x64) AppleWebKit/537.36 (KHTML, like Gecko) Chrome/126.0.0.0 YaBrowser/24.7.0.0 Safari/537.36" version="24.7.16">
  <diagram name="Страница — 1" id="KU4bxM0p2NQCuTMMtGX_">
    <mxGraphModel dx="1877" dy="543" grid="1" gridSize="10" guides="1" tooltips="1" connect="1" arrows="1" fold="1" page="1" pageScale="1" pageWidth="827" pageHeight="1169" math="0" shadow="0">
      <root>
        <mxCell id="0" />
        <mxCell id="1" parent="0" />
        <mxCell id="YBCjrIFy-AXQRhTIRfee-1" value="Паттерн" style="swimlane;fontStyle=0;childLayout=stackLayout;horizontal=1;startSize=26;fillColor=none;horizontalStack=0;resizeParent=1;resizeParentMax=0;resizeLast=0;collapsible=1;marginBottom=0;whiteSpace=wrap;html=1;" vertex="1" parent="1">
          <mxGeometry x="319" y="480" width="190" height="70" as="geometry" />
        </mxCell>
        <mxCell id="YBCjrIFy-AXQRhTIRfee-2" value="название: String&lt;br&gt;основные_задачи: List&amp;lt;String&amp;gt;" style="text;strokeColor=none;fillColor=none;align=left;verticalAlign=top;spacingLeft=4;spacingRight=4;overflow=hidden;rotatable=0;points=[[0,0.5],[1,0.5]];portConstraint=eastwest;whiteSpace=wrap;html=1;" vertex="1" parent="YBCjrIFy-AXQRhTIRfee-1">
          <mxGeometry y="26" width="190" height="44" as="geometry" />
        </mxCell>
        <mxCell id="YBCjrIFy-AXQRhTIRfee-5" value="Цитадель" style="swimlane;fontStyle=0;childLayout=stackLayout;horizontal=1;startSize=26;horizontalStack=0;resizeParent=1;resizeParentMax=0;resizeLast=0;collapsible=1;marginBottom=0;whiteSpace=wrap;html=1;" vertex="1" parent="1">
          <mxGeometry x="109" y="600" width="210" height="110" as="geometry" />
        </mxCell>
        <mxCell id="YBCjrIFy-AXQRhTIRfee-6" value="название: String&lt;div&gt;составляющие: List&amp;lt;String&amp;gt;&lt;/div&gt;&lt;div&gt;задачи: List&amp;lt;String&amp;gt;&lt;/div&gt;&lt;div&gt;примеры_применения: List&amp;lt;String&amp;gt;&lt;/div&gt;&lt;div&gt;цели: List&amp;lt;String&amp;gt;&lt;/div&gt;" style="text;align=left;verticalAlign=top;spacingLeft=4;spacingRight=4;overflow=hidden;rotatable=0;points=[[0,0.5],[1,0.5]];portConstraint=eastwest;whiteSpace=wrap;html=1;" vertex="1" parent="YBCjrIFy-AXQRhTIRfee-5">
          <mxGeometry y="26" width="210" height="84" as="geometry" />
        </mxCell>
        <mxCell id="YBCjrIFy-AXQRhTIRfee-9" value="Чистая_Архитектура" style="swimlane;fontStyle=0;childLayout=stackLayout;horizontal=1;startSize=26;horizontalStack=0;resizeParent=1;resizeParentMax=0;resizeLast=0;collapsible=1;marginBottom=0;whiteSpace=wrap;html=1;" vertex="1" parent="1">
          <mxGeometry x="509" y="600" width="210" height="110" as="geometry" />
        </mxCell>
        <mxCell id="YBCjrIFy-AXQRhTIRfee-10" value="название: String&lt;div&gt;составляющие: List&amp;lt;String&amp;gt;&lt;/div&gt;&lt;div&gt;задачи: List&amp;lt;String&amp;gt;&lt;/div&gt;&lt;div&gt;примеры_применения: List&amp;lt;String&amp;gt;&lt;/div&gt;&lt;div&gt;цели: List&amp;lt;String&amp;gt;&lt;/div&gt;" style="text;align=left;verticalAlign=top;spacingLeft=4;spacingRight=4;overflow=hidden;rotatable=0;points=[[0,0.5],[1,0.5]];portConstraint=eastwest;whiteSpace=wrap;html=1;" vertex="1" parent="YBCjrIFy-AXQRhTIRfee-9">
          <mxGeometry y="26" width="210" height="84" as="geometry" />
        </mxCell>
        <mxCell id="YBCjrIFy-AXQRhTIRfee-13" value="Центральная_Логика" style="swimlane;fontStyle=0;childLayout=stackLayout;horizontal=1;startSize=26;fillColor=#f5f5f5;horizontalStack=0;resizeParent=1;resizeParentMax=0;resizeLast=0;collapsible=1;marginBottom=0;whiteSpace=wrap;html=1;fontColor=#333333;strokeColor=#666666;" vertex="1" parent="1">
          <mxGeometry x="-180" y="670" width="180" height="70" as="geometry" />
        </mxCell>
        <mxCell id="YBCjrIFy-AXQRhTIRfee-14" value="назначение: String&lt;div&gt;связь_с_управлением: String&lt;/div&gt;" style="text;strokeColor=#666666;fillColor=#f5f5f5;align=left;verticalAlign=top;spacingLeft=4;spacingRight=4;overflow=hidden;rotatable=0;points=[[0,0.5],[1,0.5]];portConstraint=eastwest;whiteSpace=wrap;html=1;fontColor=#333333;" vertex="1" parent="YBCjrIFy-AXQRhTIRfee-13">
          <mxGeometry y="26" width="180" height="44" as="geometry" />
        </mxCell>
        <mxCell id="YBCjrIFy-AXQRhTIRfee-17" value="Защитный_Барьер" style="swimlane;fontStyle=0;childLayout=stackLayout;horizontal=1;startSize=26;fillColor=#dae8fc;horizontalStack=0;resizeParent=1;resizeParentMax=0;resizeLast=0;collapsible=1;marginBottom=0;whiteSpace=wrap;html=1;strokeColor=#6c8ebf;" vertex="1" parent="1">
          <mxGeometry x="-120" y="801" width="190" height="80" as="geometry" />
        </mxCell>
        <mxCell id="YBCjrIFy-AXQRhTIRfee-18" value="назначение: String&lt;div&gt;связь_с_безопасностью: String&lt;/div&gt;" style="text;strokeColor=#6c8ebf;fillColor=#dae8fc;align=left;verticalAlign=top;spacingLeft=4;spacingRight=4;overflow=hidden;rotatable=0;points=[[0,0.5],[1,0.5]];portConstraint=eastwest;whiteSpace=wrap;html=1;" vertex="1" parent="YBCjrIFy-AXQRhTIRfee-17">
          <mxGeometry y="26" width="190" height="54" as="geometry" />
        </mxCell>
        <mxCell id="YBCjrIFy-AXQRhTIRfee-21" value="Адаптер" style="swimlane;fontStyle=0;childLayout=stackLayout;horizontal=1;startSize=26;fillColor=#d5e8d4;horizontalStack=0;resizeParent=1;resizeParentMax=0;resizeLast=0;collapsible=1;marginBottom=0;whiteSpace=wrap;html=1;strokeColor=#82b366;" vertex="1" parent="1">
          <mxGeometry x="144" y="830" width="140" height="52" as="geometry" />
        </mxCell>
        <mxCell id="YBCjrIFy-AXQRhTIRfee-22" value="назначение: String" style="text;strokeColor=#82b366;fillColor=#d5e8d4;align=left;verticalAlign=top;spacingLeft=4;spacingRight=4;overflow=hidden;rotatable=0;points=[[0,0.5],[1,0.5]];portConstraint=eastwest;whiteSpace=wrap;html=1;" vertex="1" parent="YBCjrIFy-AXQRhTIRfee-21">
          <mxGeometry y="26" width="140" height="26" as="geometry" />
        </mxCell>
        <mxCell id="YBCjrIFy-AXQRhTIRfee-25" value="Внутренние_Слои" style="swimlane;fontStyle=0;childLayout=stackLayout;horizontal=1;startSize=26;fillColor=#e1d5e7;horizontalStack=0;resizeParent=1;resizeParentMax=0;resizeLast=0;collapsible=1;marginBottom=0;whiteSpace=wrap;html=1;strokeColor=#9673a6;" vertex="1" parent="1">
          <mxGeometry x="800" y="580" width="140" height="70" as="geometry" />
        </mxCell>
        <mxCell id="YBCjrIFy-AXQRhTIRfee-26" value="назначение: String&lt;div&gt;контроль: String&lt;/div&gt;" style="text;strokeColor=#9673a6;fillColor=#e1d5e7;align=left;verticalAlign=top;spacingLeft=4;spacingRight=4;overflow=hidden;rotatable=0;points=[[0,0.5],[1,0.5]];portConstraint=eastwest;whiteSpace=wrap;html=1;" vertex="1" parent="YBCjrIFy-AXQRhTIRfee-25">
          <mxGeometry y="26" width="140" height="44" as="geometry" />
        </mxCell>
        <mxCell id="YBCjrIFy-AXQRhTIRfee-29" value="Внешние_Слои" style="swimlane;fontStyle=0;childLayout=stackLayout;horizontal=1;startSize=26;fillColor=#f8cecc;horizontalStack=0;resizeParent=1;resizeParentMax=0;resizeLast=0;collapsible=1;marginBottom=0;whiteSpace=wrap;html=1;strokeColor=#b85450;" vertex="1" parent="1">
          <mxGeometry x="800" y="700" width="140" height="70" as="geometry" />
        </mxCell>
        <mxCell id="YBCjrIFy-AXQRhTIRfee-30" value="назначение: String&lt;div&gt;контроль: String&lt;/div&gt;" style="text;strokeColor=#b85450;fillColor=#f8cecc;align=left;verticalAlign=top;spacingLeft=4;spacingRight=4;overflow=hidden;rotatable=0;points=[[0,0.5],[1,0.5]];portConstraint=eastwest;whiteSpace=wrap;html=1;" vertex="1" parent="YBCjrIFy-AXQRhTIRfee-29">
          <mxGeometry y="26" width="140" height="44" as="geometry" />
        </mxCell>
        <mxCell id="YBCjrIFy-AXQRhTIRfee-33" value="Интерфейсы" style="swimlane;fontStyle=0;childLayout=stackLayout;horizontal=1;startSize=26;fillColor=#fff2cc;horizontalStack=0;resizeParent=1;resizeParentMax=0;resizeLast=0;collapsible=1;marginBottom=0;whiteSpace=wrap;html=1;strokeColor=#d6b656;" vertex="1" parent="1">
          <mxGeometry x="730" y="801" width="140" height="52" as="geometry" />
        </mxCell>
        <mxCell id="YBCjrIFy-AXQRhTIRfee-34" value="назначение: String" style="text;strokeColor=#d6b656;fillColor=#fff2cc;align=left;verticalAlign=top;spacingLeft=4;spacingRight=4;overflow=hidden;rotatable=0;points=[[0,0.5],[1,0.5]];portConstraint=eastwest;whiteSpace=wrap;html=1;" vertex="1" parent="YBCjrIFy-AXQRhTIRfee-33">
          <mxGeometry y="26" width="140" height="26" as="geometry" />
        </mxCell>
        <mxCell id="YBCjrIFy-AXQRhTIRfee-37" value="Инфраструктура" style="swimlane;fontStyle=0;childLayout=stackLayout;horizontal=1;startSize=26;fillColor=#ffe6cc;horizontalStack=0;resizeParent=1;resizeParentMax=0;resizeLast=0;collapsible=1;marginBottom=0;whiteSpace=wrap;html=1;strokeColor=#d79b00;" vertex="1" parent="1">
          <mxGeometry x="544" y="785" width="140" height="52" as="geometry" />
        </mxCell>
        <mxCell id="YBCjrIFy-AXQRhTIRfee-38" value="назначение: String" style="text;strokeColor=#d79b00;fillColor=#ffe6cc;align=left;verticalAlign=top;spacingLeft=4;spacingRight=4;overflow=hidden;rotatable=0;points=[[0,0.5],[1,0.5]];portConstraint=eastwest;whiteSpace=wrap;html=1;" vertex="1" parent="YBCjrIFy-AXQRhTIRfee-37">
          <mxGeometry y="26" width="140" height="26" as="geometry" />
        </mxCell>
        <mxCell id="YBCjrIFy-AXQRhTIRfee-41" value="" style="rhombus;whiteSpace=wrap;html=1;rotation=-45;" vertex="1" parent="1">
          <mxGeometry x="230" y="585" width="20" height="10" as="geometry" />
        </mxCell>
        <mxCell id="YBCjrIFy-AXQRhTIRfee-42" value="" style="endArrow=classic;html=1;rounded=0;exitX=1;exitY=0.5;exitDx=0;exitDy=0;entryX=0;entryY=0.5;entryDx=0;entryDy=0;" edge="1" parent="1" source="YBCjrIFy-AXQRhTIRfee-41" target="YBCjrIFy-AXQRhTIRfee-2">
          <mxGeometry width="50" height="50" relative="1" as="geometry">
            <mxPoint x="230" y="550" as="sourcePoint" />
            <mxPoint x="280" y="500" as="targetPoint" />
          </mxGeometry>
        </mxCell>
        <mxCell id="YBCjrIFy-AXQRhTIRfee-45" value="" style="rhombus;whiteSpace=wrap;html=1;rotation=-135;" vertex="1" parent="1">
          <mxGeometry x="580" y="585" width="20" height="10" as="geometry" />
        </mxCell>
        <mxCell id="YBCjrIFy-AXQRhTIRfee-46" value="" style="endArrow=classic;html=1;rounded=0;entryX=1;entryY=0.5;entryDx=0;entryDy=0;exitX=1;exitY=0.5;exitDx=0;exitDy=0;" edge="1" parent="1" source="YBCjrIFy-AXQRhTIRfee-45" target="YBCjrIFy-AXQRhTIRfee-2">
          <mxGeometry width="50" height="50" relative="1" as="geometry">
            <mxPoint x="640" y="450" as="sourcePoint" />
            <mxPoint x="711.5" y="440" as="targetPoint" />
          </mxGeometry>
        </mxCell>
        <mxCell id="YBCjrIFy-AXQRhTIRfee-47" value="Агрегация" style="text;html=1;align=center;verticalAlign=middle;resizable=0;points=[];autosize=1;strokeColor=none;fillColor=none;" vertex="1" parent="1">
          <mxGeometry x="200" y="530" width="80" height="30" as="geometry" />
        </mxCell>
        <mxCell id="YBCjrIFy-AXQRhTIRfee-48" value="Агрегация" style="text;html=1;align=center;verticalAlign=middle;resizable=0;points=[];autosize=1;strokeColor=none;fillColor=none;" vertex="1" parent="1">
          <mxGeometry x="550" y="530" width="80" height="30" as="geometry" />
        </mxCell>
        <mxCell id="YBCjrIFy-AXQRhTIRfee-49" value="" style="rhombus;whiteSpace=wrap;html=1;rotation=-15;" vertex="1" parent="1">
          <mxGeometry y="680" width="20" height="10" as="geometry" />
        </mxCell>
        <mxCell id="YBCjrIFy-AXQRhTIRfee-50" value="" style="endArrow=classic;html=1;rounded=0;entryX=0;entryY=0.5;entryDx=0;entryDy=0;exitX=1;exitY=0.5;exitDx=0;exitDy=0;" edge="1" parent="1" source="YBCjrIFy-AXQRhTIRfee-49" target="YBCjrIFy-AXQRhTIRfee-6">
          <mxGeometry width="50" height="50" relative="1" as="geometry">
            <mxPoint x="-110" y="570" as="sourcePoint" />
            <mxPoint x="-30.5" y="570" as="targetPoint" />
          </mxGeometry>
        </mxCell>
        <mxCell id="YBCjrIFy-AXQRhTIRfee-52" value="" style="rhombus;whiteSpace=wrap;html=1;rotation=-50;" vertex="1" parent="1">
          <mxGeometry x="20" y="785" width="20" height="9" as="geometry" />
        </mxCell>
        <mxCell id="YBCjrIFy-AXQRhTIRfee-53" value="" style="endArrow=classic;html=1;rounded=0;entryX=0.002;entryY=0.99;entryDx=0;entryDy=0;exitX=1;exitY=0.5;exitDx=0;exitDy=0;entryPerimeter=0;" edge="1" parent="1" source="YBCjrIFy-AXQRhTIRfee-52" target="YBCjrIFy-AXQRhTIRfee-6">
          <mxGeometry width="50" height="50" relative="1" as="geometry">
            <mxPoint x="110" y="800" as="sourcePoint" />
            <mxPoint x="129" y="779" as="targetPoint" />
          </mxGeometry>
        </mxCell>
        <mxCell id="YBCjrIFy-AXQRhTIRfee-54" value="" style="rhombus;whiteSpace=wrap;html=1;rotation=-90;" vertex="1" parent="1">
          <mxGeometry x="204" y="810" width="20" height="10" as="geometry" />
        </mxCell>
        <mxCell id="YBCjrIFy-AXQRhTIRfee-55" value="" style="endArrow=classic;html=1;rounded=0;entryX=0.497;entryY=1;entryDx=0;entryDy=0;exitX=1;exitY=0.5;exitDx=0;exitDy=0;entryPerimeter=0;" edge="1" parent="1" source="YBCjrIFy-AXQRhTIRfee-54" target="YBCjrIFy-AXQRhTIRfee-6">
          <mxGeometry width="50" height="50" relative="1" as="geometry">
            <mxPoint x="300" y="810" as="sourcePoint" />
            <mxPoint x="319" y="785" as="targetPoint" />
          </mxGeometry>
        </mxCell>
        <mxCell id="YBCjrIFy-AXQRhTIRfee-56" value="Агрегация" style="text;html=1;align=center;verticalAlign=middle;resizable=0;points=[];autosize=1;strokeColor=none;fillColor=none;" vertex="1" parent="1">
          <mxGeometry x="10" y="640" width="80" height="30" as="geometry" />
        </mxCell>
        <mxCell id="YBCjrIFy-AXQRhTIRfee-57" value="Агрегация" style="text;html=1;align=center;verticalAlign=middle;resizable=0;points=[];autosize=1;strokeColor=none;fillColor=none;" vertex="1" parent="1">
          <mxGeometry x="64" y="740" width="80" height="30" as="geometry" />
        </mxCell>
        <mxCell id="YBCjrIFy-AXQRhTIRfee-59" value="Агрегация" style="text;html=1;align=center;verticalAlign=middle;resizable=0;points=[];autosize=1;strokeColor=none;fillColor=none;" vertex="1" parent="1">
          <mxGeometry x="210" y="750" width="80" height="30" as="geometry" />
        </mxCell>
        <mxCell id="YBCjrIFy-AXQRhTIRfee-60" value="" style="rhombus;whiteSpace=wrap;html=1;rotation=-90;" vertex="1" parent="1">
          <mxGeometry x="604" y="770" width="20" height="10" as="geometry" />
        </mxCell>
        <mxCell id="YBCjrIFy-AXQRhTIRfee-61" value="" style="endArrow=classic;html=1;rounded=0;entryX=0.501;entryY=1;entryDx=0;entryDy=0;exitX=1;exitY=0.5;exitDx=0;exitDy=0;entryPerimeter=0;" edge="1" parent="1" source="YBCjrIFy-AXQRhTIRfee-60" target="YBCjrIFy-AXQRhTIRfee-10">
          <mxGeometry width="50" height="50" relative="1" as="geometry">
            <mxPoint x="400" y="720" as="sourcePoint" />
            <mxPoint x="499" y="758" as="targetPoint" />
          </mxGeometry>
        </mxCell>
        <mxCell id="YBCjrIFy-AXQRhTIRfee-63" value="" style="rhombus;whiteSpace=wrap;html=1;rotation=-15;" vertex="1" parent="1">
          <mxGeometry x="780" y="620" width="20" height="10" as="geometry" />
        </mxCell>
        <mxCell id="YBCjrIFy-AXQRhTIRfee-64" value="" style="endArrow=classic;html=1;rounded=0;entryX=1;entryY=0.5;entryDx=0;entryDy=0;exitX=0;exitY=0.5;exitDx=0;exitDy=0;" edge="1" parent="1" source="YBCjrIFy-AXQRhTIRfee-63" target="YBCjrIFy-AXQRhTIRfee-10">
          <mxGeometry width="50" height="50" relative="1" as="geometry">
            <mxPoint x="810" y="530" as="sourcePoint" />
            <mxPoint x="827" y="498" as="targetPoint" />
          </mxGeometry>
        </mxCell>
        <mxCell id="YBCjrIFy-AXQRhTIRfee-66" value="" style="rhombus;whiteSpace=wrap;html=1;rotation=-145;" vertex="1" parent="1">
          <mxGeometry x="780" y="740" width="20" height="10" as="geometry" />
        </mxCell>
        <mxCell id="YBCjrIFy-AXQRhTIRfee-67" value="" style="endArrow=classic;html=1;rounded=0;entryX=0.966;entryY=1;entryDx=0;entryDy=0;exitX=1;exitY=0.5;exitDx=0;exitDy=0;entryPerimeter=0;" edge="1" parent="1" source="YBCjrIFy-AXQRhTIRfee-66" target="YBCjrIFy-AXQRhTIRfee-10">
          <mxGeometry width="50" height="50" relative="1" as="geometry">
            <mxPoint x="450" y="830" as="sourcePoint" />
            <mxPoint x="499" y="768" as="targetPoint" />
          </mxGeometry>
        </mxCell>
        <mxCell id="YBCjrIFy-AXQRhTIRfee-69" value="" style="rhombus;whiteSpace=wrap;html=1;rotation=-115;" vertex="1" parent="1">
          <mxGeometry x="750" y="785" width="20" height="10" as="geometry" />
        </mxCell>
        <mxCell id="YBCjrIFy-AXQRhTIRfee-70" value="" style="endArrow=classic;html=1;rounded=0;entryX=0.84;entryY=1;entryDx=0;entryDy=0;exitX=1;exitY=0.5;exitDx=0;exitDy=0;entryPerimeter=0;" edge="1" parent="1" source="YBCjrIFy-AXQRhTIRfee-69" target="YBCjrIFy-AXQRhTIRfee-10">
          <mxGeometry width="50" height="50" relative="1" as="geometry">
            <mxPoint x="440" y="810" as="sourcePoint" />
            <mxPoint x="499" y="768" as="targetPoint" />
          </mxGeometry>
        </mxCell>
        <mxCell id="YBCjrIFy-AXQRhTIRfee-72" value="Агрегация" style="text;html=1;align=center;verticalAlign=middle;resizable=0;points=[];autosize=1;strokeColor=none;fillColor=none;" vertex="1" parent="1">
          <mxGeometry x="710" y="600" width="80" height="30" as="geometry" />
        </mxCell>
        <mxCell id="YBCjrIFy-AXQRhTIRfee-73" value="Агрегация" style="text;html=1;align=center;verticalAlign=middle;resizable=0;points=[];autosize=1;strokeColor=none;fillColor=none;" vertex="1" parent="1">
          <mxGeometry x="719" y="680" width="80" height="30" as="geometry" />
        </mxCell>
        <mxCell id="YBCjrIFy-AXQRhTIRfee-74" value="Агрегация" style="text;html=1;align=center;verticalAlign=middle;resizable=0;points=[];autosize=1;strokeColor=none;fillColor=none;" vertex="1" parent="1">
          <mxGeometry x="660" y="755" width="80" height="30" as="geometry" />
        </mxCell>
        <mxCell id="YBCjrIFy-AXQRhTIRfee-75" value="Агрегация" style="text;html=1;align=center;verticalAlign=middle;resizable=0;points=[];autosize=1;strokeColor=none;fillColor=none;" vertex="1" parent="1">
          <mxGeometry x="540" y="725" width="80" height="30" as="geometry" />
        </mxCell>
        <mxCell id="YBCjrIFy-AXQRhTIRfee-80" style="edgeStyle=orthogonalEdgeStyle;rounded=0;orthogonalLoop=1;jettySize=auto;html=1;exitX=1;exitY=0.5;exitDx=0;exitDy=0;entryX=0;entryY=0.5;entryDx=0;entryDy=0;" edge="1" parent="1" source="YBCjrIFy-AXQRhTIRfee-76" target="YBCjrIFy-AXQRhTIRfee-14">
          <mxGeometry relative="1" as="geometry" />
        </mxCell>
        <mxCell id="YBCjrIFy-AXQRhTIRfee-76" value="Ключевые функции" style="html=1;whiteSpace=wrap;fillColor=#f5f5f5;fontColor=#333333;strokeColor=#666666;" vertex="1" parent="1">
          <mxGeometry x="-390" y="700" width="110" height="50" as="geometry" />
        </mxCell>
        <mxCell id="YBCjrIFy-AXQRhTIRfee-81" style="edgeStyle=orthogonalEdgeStyle;rounded=0;orthogonalLoop=1;jettySize=auto;html=1;exitX=1;exitY=0.5;exitDx=0;exitDy=0;entryX=0;entryY=0.5;entryDx=0;entryDy=0;" edge="1" parent="1" source="YBCjrIFy-AXQRhTIRfee-77" target="YBCjrIFy-AXQRhTIRfee-14">
          <mxGeometry relative="1" as="geometry" />
        </mxCell>
        <mxCell id="YBCjrIFy-AXQRhTIRfee-77" value="Централизация управления" style="html=1;whiteSpace=wrap;fillColor=#f5f5f5;fontColor=#333333;strokeColor=#666666;" vertex="1" parent="1">
          <mxGeometry x="-390" y="760" width="110" height="50" as="geometry" />
        </mxCell>
        <mxCell id="YBCjrIFy-AXQRhTIRfee-79" style="edgeStyle=orthogonalEdgeStyle;rounded=0;orthogonalLoop=1;jettySize=auto;html=1;exitX=1;exitY=0.5;exitDx=0;exitDy=0;entryX=0;entryY=0.5;entryDx=0;entryDy=0;" edge="1" parent="1" source="YBCjrIFy-AXQRhTIRfee-78" target="YBCjrIFy-AXQRhTIRfee-14">
          <mxGeometry relative="1" as="geometry" />
        </mxCell>
        <mxCell id="YBCjrIFy-AXQRhTIRfee-78" value="Контроль над состоянием" style="html=1;whiteSpace=wrap;fillColor=#f5f5f5;fontColor=#333333;strokeColor=#666666;" vertex="1" parent="1">
          <mxGeometry x="-390" y="640" width="110" height="50" as="geometry" />
        </mxCell>
        <mxCell id="YBCjrIFy-AXQRhTIRfee-82" value="Защита данных" style="html=1;whiteSpace=wrap;fillColor=#dae8fc;strokeColor=#6c8ebf;" vertex="1" parent="1">
          <mxGeometry x="-220" y="940" width="110" height="50" as="geometry" />
        </mxCell>
        <mxCell id="YBCjrIFy-AXQRhTIRfee-83" value="Фильтры" style="html=1;whiteSpace=wrap;fillColor=#dae8fc;strokeColor=#6c8ebf;" vertex="1" parent="1">
          <mxGeometry x="-100" y="940" width="110" height="50" as="geometry" />
        </mxCell>
        <mxCell id="YBCjrIFy-AXQRhTIRfee-84" value="Защита логики" style="html=1;whiteSpace=wrap;fillColor=#dae8fc;strokeColor=#6c8ebf;" vertex="1" parent="1">
          <mxGeometry x="20" y="940" width="110" height="50" as="geometry" />
        </mxCell>
        <mxCell id="YBCjrIFy-AXQRhTIRfee-85" style="edgeStyle=orthogonalEdgeStyle;rounded=0;orthogonalLoop=1;jettySize=auto;html=1;exitX=0.5;exitY=0;exitDx=0;exitDy=0;entryX=0.529;entryY=1.004;entryDx=0;entryDy=0;entryPerimeter=0;" edge="1" parent="1" source="YBCjrIFy-AXQRhTIRfee-82" target="YBCjrIFy-AXQRhTIRfee-18">
          <mxGeometry relative="1" as="geometry" />
        </mxCell>
        <mxCell id="YBCjrIFy-AXQRhTIRfee-86" style="edgeStyle=orthogonalEdgeStyle;rounded=0;orthogonalLoop=1;jettySize=auto;html=1;exitX=0.5;exitY=0;exitDx=0;exitDy=0;entryX=0.529;entryY=0.989;entryDx=0;entryDy=0;entryPerimeter=0;" edge="1" parent="1" source="YBCjrIFy-AXQRhTIRfee-83" target="YBCjrIFy-AXQRhTIRfee-18">
          <mxGeometry relative="1" as="geometry" />
        </mxCell>
        <mxCell id="YBCjrIFy-AXQRhTIRfee-87" style="edgeStyle=orthogonalEdgeStyle;rounded=0;orthogonalLoop=1;jettySize=auto;html=1;exitX=0.5;exitY=0;exitDx=0;exitDy=0;entryX=0.529;entryY=0.989;entryDx=0;entryDy=0;entryPerimeter=0;" edge="1" parent="1" source="YBCjrIFy-AXQRhTIRfee-84" target="YBCjrIFy-AXQRhTIRfee-18">
          <mxGeometry relative="1" as="geometry" />
        </mxCell>
        <mxCell id="YBCjrIFy-AXQRhTIRfee-88" value="Примеры полей" style="text;html=1;align=center;verticalAlign=middle;resizable=0;points=[];autosize=1;strokeColor=none;fillColor=none;" vertex="1" parent="1">
          <mxGeometry x="-285" y="630" width="110" height="30" as="geometry" />
        </mxCell>
        <mxCell id="YBCjrIFy-AXQRhTIRfee-90" value="Примеры полей" style="text;html=1;align=center;verticalAlign=middle;resizable=0;points=[];autosize=1;strokeColor=none;fillColor=none;" vertex="1" parent="1">
          <mxGeometry x="-270" y="890" width="110" height="30" as="geometry" />
        </mxCell>
        <mxCell id="YBCjrIFy-AXQRhTIRfee-91" value="Связывающий компонент" style="html=1;whiteSpace=wrap;fillColor=#d5e8d4;strokeColor=#82b366;" vertex="1" parent="1">
          <mxGeometry x="195" y="950" width="110" height="50" as="geometry" />
        </mxCell>
        <mxCell id="YBCjrIFy-AXQRhTIRfee-92" style="edgeStyle=orthogonalEdgeStyle;rounded=0;orthogonalLoop=1;jettySize=auto;html=1;exitX=0.5;exitY=0;exitDx=0;exitDy=0;entryX=0.473;entryY=0.969;entryDx=0;entryDy=0;entryPerimeter=0;" edge="1" parent="1" source="YBCjrIFy-AXQRhTIRfee-91" target="YBCjrIFy-AXQRhTIRfee-22">
          <mxGeometry relative="1" as="geometry" />
        </mxCell>
        <mxCell id="YBCjrIFy-AXQRhTIRfee-93" value="Пример поля" style="text;html=1;align=center;verticalAlign=middle;resizable=0;points=[];autosize=1;strokeColor=none;fillColor=none;" vertex="1" parent="1">
          <mxGeometry x="250" y="900" width="100" height="30" as="geometry" />
        </mxCell>
        <mxCell id="YBCjrIFy-AXQRhTIRfee-94" value="Взаимодействие с внешними системами" style="html=1;whiteSpace=wrap;fillColor=#ffe6cc;strokeColor=#d79b00;" vertex="1" parent="1">
          <mxGeometry x="559" y="900" width="110" height="50" as="geometry" />
        </mxCell>
        <mxCell id="YBCjrIFy-AXQRhTIRfee-95" style="edgeStyle=orthogonalEdgeStyle;rounded=0;orthogonalLoop=1;jettySize=auto;html=1;exitX=0.5;exitY=0;exitDx=0;exitDy=0;entryX=0.496;entryY=0.977;entryDx=0;entryDy=0;entryPerimeter=0;" edge="1" parent="1" source="YBCjrIFy-AXQRhTIRfee-94" target="YBCjrIFy-AXQRhTIRfee-38">
          <mxGeometry relative="1" as="geometry" />
        </mxCell>
        <mxCell id="YBCjrIFy-AXQRhTIRfee-96" value="Связь между внутренней логикой и внешними системами" style="html=1;whiteSpace=wrap;fillColor=#fff2cc;strokeColor=#d6b656;" vertex="1" parent="1">
          <mxGeometry x="727.5" y="900" width="145" height="50" as="geometry" />
        </mxCell>
        <mxCell id="YBCjrIFy-AXQRhTIRfee-97" style="edgeStyle=orthogonalEdgeStyle;rounded=0;orthogonalLoop=1;jettySize=auto;html=1;exitX=0.5;exitY=0;exitDx=0;exitDy=0;entryX=0.499;entryY=1.008;entryDx=0;entryDy=0;entryPerimeter=0;" edge="1" parent="1" source="YBCjrIFy-AXQRhTIRfee-96" target="YBCjrIFy-AXQRhTIRfee-34">
          <mxGeometry relative="1" as="geometry" />
        </mxCell>
        <mxCell id="YBCjrIFy-AXQRhTIRfee-100" style="edgeStyle=orthogonalEdgeStyle;rounded=0;orthogonalLoop=1;jettySize=auto;html=1;exitX=0;exitY=0.5;exitDx=0;exitDy=0;entryX=1;entryY=0.5;entryDx=0;entryDy=0;" edge="1" parent="1" source="YBCjrIFy-AXQRhTIRfee-98" target="YBCjrIFy-AXQRhTIRfee-30">
          <mxGeometry relative="1" as="geometry" />
        </mxCell>
        <mxCell id="YBCjrIFy-AXQRhTIRfee-98" value="Фильтры" style="html=1;whiteSpace=wrap;fillColor=#f8cecc;strokeColor=#b85450;" vertex="1" parent="1">
          <mxGeometry x="1040" y="680" width="110" height="50" as="geometry" />
        </mxCell>
        <mxCell id="YBCjrIFy-AXQRhTIRfee-101" style="edgeStyle=orthogonalEdgeStyle;rounded=0;orthogonalLoop=1;jettySize=auto;html=1;exitX=0;exitY=0.5;exitDx=0;exitDy=0;entryX=1;entryY=0.5;entryDx=0;entryDy=0;" edge="1" parent="1" source="YBCjrIFy-AXQRhTIRfee-99" target="YBCjrIFy-AXQRhTIRfee-30">
          <mxGeometry relative="1" as="geometry" />
        </mxCell>
        <mxCell id="YBCjrIFy-AXQRhTIRfee-99" value="Полный контроль над внешним состоянием" style="html=1;whiteSpace=wrap;fillColor=#f8cecc;strokeColor=#b85450;" vertex="1" parent="1">
          <mxGeometry x="1040" y="740" width="110" height="50" as="geometry" />
        </mxCell>
        <mxCell id="YBCjrIFy-AXQRhTIRfee-107" style="edgeStyle=orthogonalEdgeStyle;rounded=0;orthogonalLoop=1;jettySize=auto;html=1;exitX=0;exitY=0.5;exitDx=0;exitDy=0;entryX=1;entryY=0.5;entryDx=0;entryDy=0;" edge="1" parent="1" source="YBCjrIFy-AXQRhTIRfee-102" target="YBCjrIFy-AXQRhTIRfee-26">
          <mxGeometry relative="1" as="geometry" />
        </mxCell>
        <mxCell id="YBCjrIFy-AXQRhTIRfee-102" value="Выполнение ключевых функций" style="html=1;whiteSpace=wrap;fillColor=#e1d5e7;strokeColor=#9673a6;" vertex="1" parent="1">
          <mxGeometry x="1040" y="480" width="110" height="50" as="geometry" />
        </mxCell>
        <mxCell id="YBCjrIFy-AXQRhTIRfee-106" style="edgeStyle=orthogonalEdgeStyle;rounded=0;orthogonalLoop=1;jettySize=auto;html=1;exitX=0;exitY=0.5;exitDx=0;exitDy=0;entryX=1;entryY=0.5;entryDx=0;entryDy=0;" edge="1" parent="1" source="YBCjrIFy-AXQRhTIRfee-103" target="YBCjrIFy-AXQRhTIRfee-26">
          <mxGeometry relative="1" as="geometry" />
        </mxCell>
        <mxCell id="YBCjrIFy-AXQRhTIRfee-103" value="Независимость от фреймворков" style="html=1;whiteSpace=wrap;fillColor=#e1d5e7;strokeColor=#9673a6;" vertex="1" parent="1">
          <mxGeometry x="1040" y="540" width="110" height="50" as="geometry" />
        </mxCell>
        <mxCell id="YBCjrIFy-AXQRhTIRfee-105" style="edgeStyle=orthogonalEdgeStyle;rounded=0;orthogonalLoop=1;jettySize=auto;html=1;exitX=0;exitY=0.5;exitDx=0;exitDy=0;entryX=1;entryY=0.5;entryDx=0;entryDy=0;" edge="1" parent="1" source="YBCjrIFy-AXQRhTIRfee-104" target="YBCjrIFy-AXQRhTIRfee-26">
          <mxGeometry relative="1" as="geometry" />
        </mxCell>
        <mxCell id="YBCjrIFy-AXQRhTIRfee-104" value="Контроль над состоянием" style="html=1;whiteSpace=wrap;fillColor=#e1d5e7;strokeColor=#9673a6;" vertex="1" parent="1">
          <mxGeometry x="1040" y="600" width="110" height="50" as="geometry" />
        </mxCell>
        <mxCell id="YBCjrIFy-AXQRhTIRfee-108" value="Примеры полей" style="text;html=1;align=center;verticalAlign=middle;resizable=0;points=[];autosize=1;strokeColor=none;fillColor=none;" vertex="1" parent="1">
          <mxGeometry x="910" y="470" width="110" height="30" as="geometry" />
        </mxCell>
        <mxCell id="YBCjrIFy-AXQRhTIRfee-109" value="Примеры полей" style="text;html=1;align=center;verticalAlign=middle;resizable=0;points=[];autosize=1;strokeColor=none;fillColor=none;" vertex="1" parent="1">
          <mxGeometry x="930" y="780" width="110" height="30" as="geometry" />
        </mxCell>
        <mxCell id="YBCjrIFy-AXQRhTIRfee-110" value="Пример поля" style="text;html=1;align=center;verticalAlign=middle;resizable=0;points=[];autosize=1;strokeColor=none;fillColor=none;" vertex="1" parent="1">
          <mxGeometry x="810" y="860" width="100" height="30" as="geometry" />
        </mxCell>
        <mxCell id="YBCjrIFy-AXQRhTIRfee-111" value="Пример поля" style="text;html=1;align=center;verticalAlign=middle;resizable=0;points=[];autosize=1;strokeColor=none;fillColor=none;" vertex="1" parent="1">
          <mxGeometry x="509" y="853" width="100" height="30" as="geometry" />
        </mxCell>
      </root>
    </mxGraphModel>
  </diagram>
</mxfile>
